<?xml version="1.0" standalone="no"?>
<!DOCTYPE svg PUBLIC "-//W3C//DTD SVG 20010904//EN"
 "http://www.w3.org/TR/2001/REC-SVG-20010904/DTD/svg10.dtd">
<svg version="1.0" xmlns="http://www.w3.org/2000/svg"
 width="1218.000000pt" height="1280.000000pt" viewBox="0 0 1218.000000 1280.000000"
 preserveAspectRatio="xMidYMid meet">
<metadata>
Created by potrace 1.15, written by Peter Selinger 2001-2017
</metadata>
<g transform="translate(0.000000,1280.000000) scale(0.100000,-0.100000)"
fill="#000080" stroke="none">

<path d="M10271 4027 c-12 -24 -21 -51 -21 -60 0 -9 -4 -17 -10 -17 -6 0 -10
-32 -10 -76 0 -83 -11 -103 -57 -104 -21 0 -23 -5 -23 -49 l0 -50 -52 -3 -53
-3 -3 -87 -3 -88 -44 0 -45 0 0 -54 0 -55 -42 -3 -43 -3 -3 -982 c-1 -644 -6
-983 -12 -983 -6 0 -10 -76 -10 -205 0 -245 0 -245 -100 -245 -53 0 -60 2 -60
20 0 17 -7 20 -45 20 l-45 0 -2 207 -3 208 -40 5 c-38 5 -40 7 -43 43 l-3 37
-134 0 -134 0 -3 147 -3 146 -40 13 c-102 35 -125 46 -125 62 0 11 -28 29 -83
55 -76 34 -89 37 -174 37 l-93 0 0 -60 0 -60 -69 0 c-69 0 -70 0 -73 -27 -3
-26 -7 -28 -50 -31 l-48 -3 0 -79 0 -79 -37 -6 c-21 -4 -50 -9 -65 -11 l-28
-6 0 494 0 493 -87 42 c-49 23 -126 63 -173 87 l-85 45 -275 -14 c-151 -8
-276 -14 -277 -15 -2 0 -3 -182 -3 -405 l0 -405 -125 6 -125 7 0 -36 0 -37
-62 0 c-35 -1 -81 -7 -103 -15 -45 -16 -64 -7 -85 46 -12 27 -16 29 -71 29
l-59 0 0 -79 c0 -71 2 -80 20 -86 13 -4 20 -15 20 -31 0 -21 -4 -24 -39 -24
-22 0 -43 -5 -46 -10 -3 -5 -27 -10 -53 -10 -66 0 -92 -9 -92 -31 0 -12 -7
-19 -20 -19 -20 0 -20 7 -20 564 0 626 5 583 -68 595 -28 5 -37 12 -42 31 -4
18 -14 26 -35 30 l-30 5 -3 223 c-3 303 -21 293 -24 -15 l-3 -237 -65 -12
c-36 -7 -83 -18 -105 -26 l-40 -13 1 -499 2 -498 -37 6 c-20 3 -87 8 -148 12
l-113 7 0 -71 0 -72 -43 0 -44 0 -11 -64 c-7 -38 -12 -171 -12 -340 0 -184 -3
-275 -10 -271 -17 10 -47 -4 -53 -25 -4 -15 -14 -20 -41 -20 l-35 0 -3 72 c-2
60 -6 73 -20 76 -15 3 -18 -4 -18 -47 0 -50 -1 -51 -30 -51 l-30 0 0 305 0
305 -40 0 -40 0 0 604 c0 576 -1 605 -18 618 -11 7 -21 30 -24 54 -4 25 -15
51 -32 67 -14 14 -26 22 -26 17 0 -6 -4 -10 -9 -10 -5 0 -19 30 -31 66 -17 49
-21 80 -17 115 5 43 4 49 -12 49 -10 0 -30 9 -45 21 -23 18 -26 18 -26 3 0
-13 -6 -15 -31 -10 -17 3 -38 2 -47 -3 -10 -5 -27 -5 -41 0 -18 7 -22 14 -18
31 9 35 -18 58 -60 51 -29 -5 -34 -3 -31 12 4 25 -18 30 -25 5 -4 -17 -13 -20
-60 -20 -31 0 -57 5 -59 11 -6 19 -40 -2 -35 -22 3 -11 1 -19 -5 -19 -6 0 -9
-35 -7 -92 l4 -93 -32 3 c-38 4 -55 -18 -74 -91 -6 -27 -18 -51 -25 -54 -12
-4 -14 -140 -14 -804 l0 -799 -35 0 -35 0 0 -240 0 -240 -25 0 c-16 0 -25 6
-25 15 0 8 -7 15 -15 15 -8 0 -15 -4 -15 -9 0 -4 -15 -25 -34 -45 -32 -33 -39
-36 -90 -36 l-56 0 0 180 0 180 -40 0 -40 0 0 40 0 40 -76 0 c-67 0 -76 2 -81
20 -5 17 -14 20 -64 20 l-59 0 -2 298 -3 297 -62 3 -63 3 0 448 0 448 -93 16
c-115 21 -160 21 -262 2 -81 -16 -105 -31 -105 -67 0 -11 -13 -27 -30 -36
l-30 -17 0 -262 0 -263 -25 0 -25 0 0 -245 0 -245 -25 -1 c-14 -1 -31 -2 -37
-3 -10 -1 -14 -62 -18 -256 -4 -154 -9 -246 -14 -232 -12 31 -76 33 -76 2 0
-11 -7 -23 -15 -26 -12 -5 -15 -29 -15 -126 0 -77 -4 -117 -10 -113 -6 3 -10
19 -10 35 0 27 -3 29 -47 32 -46 3 -48 4 -51 36 -2 24 -8 32 -23 32 -10 0 -19
7 -19 15 0 10 -10 15 -30 15 -20 0 -30 5 -30 15 0 10 -10 15 -30 15 l-30 0 0
173 c0 200 -3 217 -36 217 -19 0 -24 5 -24 25 0 14 -4 25 -8 25 -5 0 -9 67 -8
149 1 88 -3 154 -9 160 -5 5 -130 15 -277 21 -215 10 -273 10 -298 0 l-30 -12
0 -147 0 -147 -92 13 c-90 13 -457 11 -516 -4 l-22 -5 0 -359 0 -359 -41 0
-40 0 3 135 3 135 -127 0 c-105 0 -128 3 -128 15 0 8 -14 17 -34 21 -28 5 -35
11 -38 33 -2 15 -9 26 -18 26 -12 0 -16 21 -18 118 -2 107 2 149 23 200 5 12
2 17 -10 17 -12 0 -16 6 -12 20 6 25 0 25 -26 3 -19 -17 -20 -17 -14 0 10 27
-3 77 -21 77 -14 0 -14 40 0 155 2 14 -3 20 -17 20 -18 0 -20 -8 -23 -85 -2
-60 -8 -90 -19 -102 -9 -10 -14 -28 -11 -43 6 -30 1 -31 -25 -7 -19 16 -19 16
-13 -5 6 -19 4 -23 -14 -23 -16 0 -20 -5 -16 -18 7 -23 26 -226 26 -279 0 -41
-1 -43 -30 -43 l-30 0 0 -143 0 -144 -40 -1 c-22 -1 -43 -2 -47 -3 -22 -4 -35
3 -30 15 7 18 -16 38 -35 31 -9 -4 -18 1 -22 12 -6 14 -9 15 -16 4 -5 -9 -26
-14 -53 -14 l-45 0 1 -61 c1 -53 -1 -61 -18 -65 -31 -5 -42 -19 -49 -56 -4
-19 -11 -35 -16 -35 -6 0 -10 -63 -10 -155 l0 -155 5690 0 5690 0 0 210 c0
180 -2 210 -15 210 -12 0 -15 14 -15 65 l0 65 -85 0 -84 0 -3 117 -3 118 -42
3 -43 3 0 104 0 103 -65 22 c-36 12 -65 27 -65 33 0 7 -18 20 -40 29 l-40 17
0 352 0 352 -206 -7 c-114 -3 -233 -9 -265 -13 l-59 -6 0 541 c0 317 -4 551
-9 566 -7 17 -19 26 -38 28 -27 3 -28 5 -25 50 2 39 0 47 -18 53 -11 3 -32 26
-46 51 -16 28 -33 44 -45 44 -16 0 -19 7 -19 43 0 31 -6 49 -20 62 -11 10 -20
29 -20 42 0 19 -5 24 -22 21 -20 -3 -23 2 -26 40 l-3 44 -35 -6 c-19 -4 -34
-3 -34 1 0 4 -7 49 -14 99 -15 96 -24 121 -62 166 l-22 28 -21 -43z"/>

</g>
</svg>
